<svg width="44" height="44" viewBox="0 0 44 44" fill="none" xmlns="http://www.w3.org/2000/svg">
<rect x="1" y="1" width="42" height="42" rx="3" fill="white"/>
<path fill-rule="evenodd" clip-rule="evenodd" d="M12.0703 15.5039C12.2923 14.6429 13.07 14 14 14H30C30.937 14 31.7195 14.6505 31.9355 15.5215L22 21.7266L12.0703 15.5039ZM14 30C12.897 30 12 29.103 12 28V17.7344L22 24L32 17.7559V28C32 29.103 31.103 30 30 30H14Z" fill="url(#paint0_linear)"/>
<path fill-rule="evenodd" clip-rule="evenodd" d="M12.0703 15.5039C12.2923 14.6429 13.07 14 14 14H30C30.937 14 31.7195 14.6505 31.9355 15.5215L22 21.7266L12.0703 15.5039ZM14 30C12.897 30 12 29.103 12 28V17.7344L22 24L32 17.7559V28C32 29.103 31.103 30 30 30H14Z" fill="url(#paint1_radial)"/>
<rect x="1" y="1" width="42" height="42" rx="3" stroke="url(#paint2_linear)" stroke-width="2"/>
<rect x="1" y="1" width="42" height="42" rx="3" stroke="url(#paint3_radial)" stroke-width="2"/>
<defs>
<linearGradient id="paint0_linear" x1="12" y1="14" x2="27.6098" y2="33.5122" gradientUnits="userSpaceOnUse">
<stop stop-color="#72EDF2"/>
<stop offset="1" stop-color="#5151E5"/>
</linearGradient>
<radialGradient id="paint1_radial" cx="0" cy="0" r="1" gradientUnits="userSpaceOnUse" gradientTransform="translate(12.4758 15.3634) rotate(16.4693) scale(6.48114 3.20814)">
<stop stop-color="#747DE9"/>
<stop offset="1" stop-color="white" stop-opacity="0"/>
</radialGradient>
<linearGradient id="paint2_linear" x1="0" y1="0" x2="44" y2="44" gradientUnits="userSpaceOnUse">
<stop stop-color="#72EDF2"/>
<stop offset="1" stop-color="#5151E5"/>
</linearGradient>
<radialGradient id="paint3_radial" cx="0" cy="0" r="1" gradientUnits="userSpaceOnUse" gradientTransform="translate(1.04685 3.74927) rotate(20.2812) scale(14.5773 8.62948)">
<stop stop-color="#747DE9"/>
<stop offset="1" stop-color="white" stop-opacity="0"/>
</radialGradient>
</defs>
</svg>
