<svg width="224" height="44" viewBox="0 0 224 44" fill="none" xmlns="http://www.w3.org/2000/svg">
<rect x="1" y="1" width="42" height="42" rx="3" fill="white"/>
<path fill-rule="evenodd" clip-rule="evenodd" d="M28.099 25.348C28.6 25.436 29.393 25.473 30.023 25.488C30.568 25.501 31 25.945 31 26.49V30C31 30.438 30.672 31 30 31C25.461 31 21.126 29.16 17.966 26.034C14.84 22.874 13 18.539 13 14C13 13.328 13.562 13 14 13H17.51C18.055 13 18.499 13.432 18.512 13.977C18.528 14.607 18.564 15.4 18.653 15.901C18.748 16.443 18.935 17.095 19.077 17.553C19.189 17.913 19.09 18.305 18.824 18.572L16.62 20.79C17.427 22.322 18.367 23.549 19.412 24.588C20.451 25.633 21.678 26.573 23.21 27.38L25.427 25.176C25.694 24.91 26.086 24.811 26.446 24.923C26.905 25.066 27.557 25.252 28.099 25.348Z" fill="url(#paint0_linear)"/>
<path fill-rule="evenodd" clip-rule="evenodd" d="M28.099 25.348C28.6 25.436 29.393 25.473 30.023 25.488C30.568 25.501 31 25.945 31 26.49V30C31 30.438 30.672 31 30 31C25.461 31 21.126 29.16 17.966 26.034C14.84 22.874 13 18.539 13 14C13 13.328 13.562 13 14 13H17.51C18.055 13 18.499 13.432 18.512 13.977C18.528 14.607 18.564 15.4 18.653 15.901C18.748 16.443 18.935 17.095 19.077 17.553C19.189 17.913 19.09 18.305 18.824 18.572L16.62 20.79C17.427 22.322 18.367 23.549 19.412 24.588C20.451 25.633 21.678 26.573 23.21 27.38L25.427 25.176C25.694 24.91 26.086 24.811 26.446 24.923C26.905 25.066 27.557 25.252 28.099 25.348Z" fill="url(#paint1_radial)"/>
<rect x="1" y="1" width="42" height="42" rx="3" stroke="url(#paint2_linear)" stroke-width="2"/>
<rect x="1" y="1" width="42" height="42" rx="3" stroke="url(#paint3_radial)" stroke-width="2"/>
<rect x="61" y="1" width="42" height="42" rx="3" fill="white"/>
<path fill-rule="evenodd" clip-rule="evenodd" d="M72.0703 15.5039C72.2923 14.6429 73.07 14 74 14H90C90.937 14 91.7195 14.6505 91.9355 15.5215L82 21.7266L72.0703 15.5039ZM74 30C72.897 30 72 29.103 72 28V17.7344L82 24L92 17.7559V28C92 29.103 91.103 30 90 30H74Z" fill="url(#paint4_linear)"/>
<path fill-rule="evenodd" clip-rule="evenodd" d="M72.0703 15.5039C72.2923 14.6429 73.07 14 74 14H90C90.937 14 91.7195 14.6505 91.9355 15.5215L82 21.7266L72.0703 15.5039ZM74 30C72.897 30 72 29.103 72 28V17.7344L82 24L92 17.7559V28C92 29.103 91.103 30 90 30H74Z" fill="url(#paint5_radial)"/>
<rect x="61" y="1" width="42" height="42" rx="3" stroke="url(#paint6_linear)" stroke-width="2"/>
<rect x="61" y="1" width="42" height="42" rx="3" stroke="url(#paint7_radial)" stroke-width="2"/>
<rect x="121" y="1" width="42" height="42" rx="3" fill="white"/>
<path fill-rule="evenodd" clip-rule="evenodd" d="M133 18C133 15.239 135.239 13 138 13H146C148.761 13 151 15.239 151 18V26C151 28.761 148.761 31 146 31H138C135.239 31 133 28.761 133 26V18ZM149 16C149 15.448 148.552 15 148 15C147.448 15 147 15.448 147 16C147 16.552 147.448 17 148 17C148.552 17 149 16.552 149 16ZM147 22C147 19.239 144.761 17 142 17C139.239 17 137 19.239 137 22C137 24.761 139.239 27 142 27C144.761 27 147 24.761 147 22ZM139.879 19.8787C140.441 19.3161 141.204 19 142 19C142.796 19 143.559 19.3161 144.121 19.8787C144.684 20.4413 145 21.2044 145 22C145 22.7956 144.684 23.5587 144.121 24.1213C143.559 24.6839 142.796 25 142 25C141.204 25 140.441 24.6839 139.879 24.1213C139.316 23.5587 139 22.7956 139 22C139 21.2044 139.316 20.4413 139.879 19.8787Z" fill="url(#paint8_linear)"/>
<path fill-rule="evenodd" clip-rule="evenodd" d="M133 18C133 15.239 135.239 13 138 13H146C148.761 13 151 15.239 151 18V26C151 28.761 148.761 31 146 31H138C135.239 31 133 28.761 133 26V18ZM149 16C149 15.448 148.552 15 148 15C147.448 15 147 15.448 147 16C147 16.552 147.448 17 148 17C148.552 17 149 16.552 149 16ZM147 22C147 19.239 144.761 17 142 17C139.239 17 137 19.239 137 22C137 24.761 139.239 27 142 27C144.761 27 147 24.761 147 22ZM139.879 19.8787C140.441 19.3161 141.204 19 142 19C142.796 19 143.559 19.3161 144.121 19.8787C144.684 20.4413 145 21.2044 145 22C145 22.7956 144.684 23.5587 144.121 24.1213C143.559 24.6839 142.796 25 142 25C141.204 25 140.441 24.6839 139.879 24.1213C139.316 23.5587 139 22.7956 139 22C139 21.2044 139.316 20.4413 139.879 19.8787Z" fill="url(#paint9_radial)"/>
<rect x="121" y="1" width="42" height="42" rx="3" stroke="url(#paint10_linear)" stroke-width="2"/>
<rect x="121" y="1" width="42" height="42" rx="3" stroke="url(#paint11_radial)" stroke-width="2"/>
<rect x="181" y="1" width="42" height="42" rx="3" fill="white"/>
<path fill-rule="evenodd" clip-rule="evenodd" d="M208.735 15.275C209.655 15.093 211.22 14.462 212 13.999C211.699 14.943 210.514 16.135 209.68 16.635C210.497 16.537 211.275 16.321 212 15.999C211.458 16.809 210.773 17.52 209.983 18.09C209.986 18.156 209.989 18.283 209.992 18.419C209.992 18.4325 209.994 18.4458 209.996 18.459C209.998 18.4723 210 18.4855 210 18.499C210 18.508 209.999 18.5168 209.998 18.5255C209.996 18.5343 209.995 18.543 209.995 18.552C209.998 18.733 210 18.913 210 18.999C210 24.337 205.777 30 198.347 30C196.065 30 193.788 29.145 192 27.999H192.964C195.794 27.999 196.753 27.597 198.135 26.513C196.368 26.481 194.514 25.579 194 23.974C194.246 24.02 195.166 24.139 195.426 24.139C195.795 24.139 196.551 24.117 196.926 23.896C195.078 23.525 193 22.192 193 20.234V20.183C193.563 20.647 194.178 20.8 194.759 20.8C195.119 20.8 195.465 20.742 195.779 20.661C194.074 19.808 192.979 18.432 192.979 17.031C192.979 16.289 193.066 15.499 193.265 14.999C195.095 17.243 197.647 18.999 201 18.999C200.992 18.9104 200.995 18.7676 200.998 18.6446C200.998 18.6378 200.998 18.631 200.998 18.6243C200.999 18.5775 201 18.5343 201 18.499C201 16.014 203.015 13.999 205.5 13.999C206.733 13.999 207.847 14.496 208.66 15.298C208.672 15.2947 208.684 15.2909 208.695 15.2871C208.708 15.2829 208.721 15.2787 208.735 15.275Z" fill="url(#paint12_linear)"/>
<path fill-rule="evenodd" clip-rule="evenodd" d="M208.735 15.275C209.655 15.093 211.22 14.462 212 13.999C211.699 14.943 210.514 16.135 209.68 16.635C210.497 16.537 211.275 16.321 212 15.999C211.458 16.809 210.773 17.52 209.983 18.09C209.986 18.156 209.989 18.283 209.992 18.419C209.992 18.4325 209.994 18.4458 209.996 18.459C209.998 18.4723 210 18.4855 210 18.499C210 18.508 209.999 18.5168 209.998 18.5255C209.996 18.5343 209.995 18.543 209.995 18.552C209.998 18.733 210 18.913 210 18.999C210 24.337 205.777 30 198.347 30C196.065 30 193.788 29.145 192 27.999H192.964C195.794 27.999 196.753 27.597 198.135 26.513C196.368 26.481 194.514 25.579 194 23.974C194.246 24.02 195.166 24.139 195.426 24.139C195.795 24.139 196.551 24.117 196.926 23.896C195.078 23.525 193 22.192 193 20.234V20.183C193.563 20.647 194.178 20.8 194.759 20.8C195.119 20.8 195.465 20.742 195.779 20.661C194.074 19.808 192.979 18.432 192.979 17.031C192.979 16.289 193.066 15.499 193.265 14.999C195.095 17.243 197.647 18.999 201 18.999C200.992 18.9104 200.995 18.7676 200.998 18.6446C200.998 18.6378 200.998 18.631 200.998 18.6243C200.999 18.5775 201 18.5343 201 18.499C201 16.014 203.015 13.999 205.5 13.999C206.733 13.999 207.847 14.496 208.66 15.298C208.672 15.2947 208.684 15.2909 208.695 15.2871C208.708 15.2829 208.721 15.2787 208.735 15.275Z" fill="url(#paint13_radial)"/>
<rect x="181" y="1" width="42" height="42" rx="3" stroke="url(#paint14_linear)" stroke-width="2"/>
<rect x="181" y="1" width="42" height="42" rx="3" stroke="url(#paint15_radial)" stroke-width="2"/>
<defs>
<linearGradient id="paint0_linear" x1="13" y1="13" x2="31" y2="31" gradientUnits="userSpaceOnUse">
<stop stop-color="#72EDF2"/>
<stop offset="1" stop-color="#5151E5"/>
</linearGradient>
<radialGradient id="paint1_radial" cx="0" cy="0" r="1" gradientUnits="userSpaceOnUse" gradientTransform="translate(13.4283 14.5338) rotate(20.2812) scale(5.96342 3.53024)">
<stop stop-color="#747DE9"/>
<stop offset="1" stop-color="white" stop-opacity="0"/>
</radialGradient>
<linearGradient id="paint2_linear" x1="0" y1="0" x2="44" y2="44" gradientUnits="userSpaceOnUse">
<stop stop-color="#72EDF2"/>
<stop offset="1" stop-color="#5151E5"/>
</linearGradient>
<radialGradient id="paint3_radial" cx="0" cy="0" r="1" gradientUnits="userSpaceOnUse" gradientTransform="translate(1.04685 3.74927) rotate(20.2812) scale(14.5773 8.62948)">
<stop stop-color="#747DE9"/>
<stop offset="1" stop-color="white" stop-opacity="0"/>
</radialGradient>
<linearGradient id="paint4_linear" x1="72" y1="14" x2="87.6098" y2="33.5122" gradientUnits="userSpaceOnUse">
<stop stop-color="#72EDF2"/>
<stop offset="1" stop-color="#5151E5"/>
</linearGradient>
<radialGradient id="paint5_radial" cx="0" cy="0" r="1" gradientUnits="userSpaceOnUse" gradientTransform="translate(72.4758 15.3634) rotate(16.4693) scale(6.48114 3.20814)">
<stop stop-color="#747DE9"/>
<stop offset="1" stop-color="white" stop-opacity="0"/>
</radialGradient>
<linearGradient id="paint6_linear" x1="60" y1="0" x2="104" y2="44" gradientUnits="userSpaceOnUse">
<stop stop-color="#72EDF2"/>
<stop offset="1" stop-color="#5151E5"/>
</linearGradient>
<radialGradient id="paint7_radial" cx="0" cy="0" r="1" gradientUnits="userSpaceOnUse" gradientTransform="translate(61.0469 3.74927) rotate(20.2812) scale(14.5773 8.62948)">
<stop stop-color="#747DE9"/>
<stop offset="1" stop-color="white" stop-opacity="0"/>
</radialGradient>
<linearGradient id="paint8_linear" x1="133" y1="13" x2="151" y2="31" gradientUnits="userSpaceOnUse">
<stop stop-color="#72EDF2"/>
<stop offset="1" stop-color="#5151E5"/>
</linearGradient>
<radialGradient id="paint9_radial" cx="0" cy="0" r="1" gradientUnits="userSpaceOnUse" gradientTransform="translate(133.428 14.5338) rotate(20.2812) scale(5.96342 3.53024)">
<stop stop-color="#747DE9"/>
<stop offset="1" stop-color="white" stop-opacity="0"/>
</radialGradient>
<linearGradient id="paint10_linear" x1="120" y1="0" x2="164" y2="44" gradientUnits="userSpaceOnUse">
<stop stop-color="#72EDF2"/>
<stop offset="1" stop-color="#5151E5"/>
</linearGradient>
<radialGradient id="paint11_radial" cx="0" cy="0" r="1" gradientUnits="userSpaceOnUse" gradientTransform="translate(121.047 3.74927) rotate(20.2812) scale(14.5773 8.62948)">
<stop stop-color="#747DE9"/>
<stop offset="1" stop-color="white" stop-opacity="0"/>
</radialGradient>
<linearGradient id="paint12_linear" x1="192" y1="13.999" x2="207.611" y2="33.5115" gradientUnits="userSpaceOnUse">
<stop stop-color="#72EDF2"/>
<stop offset="1" stop-color="#5151E5"/>
</linearGradient>
<radialGradient id="paint13_radial" cx="0" cy="0" r="1" gradientUnits="userSpaceOnUse" gradientTransform="translate(192.476 15.3625) rotate(16.4703) scale(6.48117 3.20833)">
<stop stop-color="#747DE9"/>
<stop offset="1" stop-color="white" stop-opacity="0"/>
</radialGradient>
<linearGradient id="paint14_linear" x1="180" y1="0" x2="224" y2="44" gradientUnits="userSpaceOnUse">
<stop stop-color="#72EDF2"/>
<stop offset="1" stop-color="#5151E5"/>
</linearGradient>
<radialGradient id="paint15_radial" cx="0" cy="0" r="1" gradientUnits="userSpaceOnUse" gradientTransform="translate(181.047 3.74927) rotate(20.2812) scale(14.5773 8.62948)">
<stop stop-color="#747DE9"/>
<stop offset="1" stop-color="white" stop-opacity="0"/>
</radialGradient>
</defs>
</svg>
