<svg width="44" height="44" viewBox="0 0 44 44" fill="none" xmlns="http://www.w3.org/2000/svg">
<rect x="1" y="1" width="42" height="42" rx="3" fill="white"/>
<path fill-rule="evenodd" clip-rule="evenodd" d="M28.735 15.275C29.655 15.093 31.22 14.462 32 13.999C31.699 14.943 30.514 16.135 29.68 16.635C30.497 16.537 31.275 16.321 32 15.999C31.458 16.809 30.773 17.52 29.983 18.09C29.986 18.156 29.989 18.283 29.992 18.419C29.992 18.4325 29.994 18.4458 29.996 18.459C29.998 18.4723 30 18.4855 30 18.499C30 18.508 29.9988 18.5168 29.9975 18.5255C29.9963 18.5343 29.995 18.543 29.995 18.552C29.998 18.733 30 18.913 30 18.999C30 24.337 25.777 30 18.347 30C16.065 30 13.788 29.145 12 27.999H12.964C15.794 27.999 16.753 27.597 18.135 26.513C16.368 26.481 14.514 25.579 14 23.974C14.246 24.02 15.166 24.139 15.426 24.139C15.795 24.139 16.551 24.117 16.926 23.896C15.078 23.525 13 22.192 13 20.234V20.183C13.563 20.647 14.178 20.8 14.759 20.8C15.119 20.8 15.465 20.742 15.779 20.661C14.074 19.808 12.979 18.432 12.979 17.031C12.979 16.289 13.066 15.499 13.265 14.999C15.095 17.243 17.647 18.999 21 18.999C20.9924 18.9104 20.9953 18.7676 20.9978 18.6446C20.998 18.6378 20.9981 18.631 20.9983 18.6243C20.9992 18.5775 21 18.5343 21 18.499C21 16.014 23.015 13.999 25.5 13.999C26.733 13.999 27.847 14.496 28.66 15.298C28.6724 15.2947 28.6839 15.2909 28.6954 15.2871C28.7081 15.2829 28.7209 15.2787 28.735 15.275Z" fill="url(#paint0_linear)"/>
<path fill-rule="evenodd" clip-rule="evenodd" d="M28.735 15.275C29.655 15.093 31.22 14.462 32 13.999C31.699 14.943 30.514 16.135 29.68 16.635C30.497 16.537 31.275 16.321 32 15.999C31.458 16.809 30.773 17.52 29.983 18.09C29.986 18.156 29.989 18.283 29.992 18.419C29.992 18.4325 29.994 18.4458 29.996 18.459C29.998 18.4723 30 18.4855 30 18.499C30 18.508 29.9988 18.5168 29.9975 18.5255C29.9963 18.5343 29.995 18.543 29.995 18.552C29.998 18.733 30 18.913 30 18.999C30 24.337 25.777 30 18.347 30C16.065 30 13.788 29.145 12 27.999H12.964C15.794 27.999 16.753 27.597 18.135 26.513C16.368 26.481 14.514 25.579 14 23.974C14.246 24.02 15.166 24.139 15.426 24.139C15.795 24.139 16.551 24.117 16.926 23.896C15.078 23.525 13 22.192 13 20.234V20.183C13.563 20.647 14.178 20.8 14.759 20.8C15.119 20.8 15.465 20.742 15.779 20.661C14.074 19.808 12.979 18.432 12.979 17.031C12.979 16.289 13.066 15.499 13.265 14.999C15.095 17.243 17.647 18.999 21 18.999C20.9924 18.9104 20.9953 18.7676 20.9978 18.6446C20.998 18.6378 20.9981 18.631 20.9983 18.6243C20.9992 18.5775 21 18.5343 21 18.499C21 16.014 23.015 13.999 25.5 13.999C26.733 13.999 27.847 14.496 28.66 15.298C28.6724 15.2947 28.6839 15.2909 28.6954 15.2871C28.7081 15.2829 28.7209 15.2787 28.735 15.275Z" fill="url(#paint1_radial)"/>
<rect x="1" y="1" width="42" height="42" rx="3" stroke="url(#paint2_linear)" stroke-width="2"/>
<rect x="1" y="1" width="42" height="42" rx="3" stroke="url(#paint3_radial)" stroke-width="2"/>
<defs>
<linearGradient id="paint0_linear" x1="12" y1="13.999" x2="27.6109" y2="33.5115" gradientUnits="userSpaceOnUse">
<stop stop-color="#72EDF2"/>
<stop offset="1" stop-color="#5151E5"/>
</linearGradient>
<radialGradient id="paint1_radial" cx="0" cy="0" r="1" gradientUnits="userSpaceOnUse" gradientTransform="translate(12.4758 15.3625) rotate(16.4703) scale(6.48117 3.20833)">
<stop stop-color="#747DE9"/>
<stop offset="1" stop-color="white" stop-opacity="0"/>
</radialGradient>
<linearGradient id="paint2_linear" x1="0" y1="0" x2="44" y2="44" gradientUnits="userSpaceOnUse">
<stop stop-color="#72EDF2"/>
<stop offset="1" stop-color="#5151E5"/>
</linearGradient>
<radialGradient id="paint3_radial" cx="0" cy="0" r="1" gradientUnits="userSpaceOnUse" gradientTransform="translate(1.04685 3.74927) rotate(20.2812) scale(14.5773 8.62948)">
<stop stop-color="#747DE9"/>
<stop offset="1" stop-color="white" stop-opacity="0"/>
</radialGradient>
</defs>
</svg>
